<?xml version="1.0" standalone="no"?>
<!DOCTYPE svg PUBLIC "-//W3C//DTD SVG 20010904//EN"
 "http://www.w3.org/TR/2001/REC-SVG-20010904/DTD/svg10.dtd">
<svg version="1.0" xmlns="http://www.w3.org/2000/svg"
 width="1280.000000pt" height="378.000000pt" viewBox="0 0 1280.000000 378.000000"
 preserveAspectRatio="xMidYMid meet">
<metadata>
Created by potrace 1.15, written by Peter Selinger 2001-2017
</metadata>
<g transform="translate(0.000000,378.000000) scale(0.100000,-0.100000)"
fill="#000000" stroke="none">
<path d="M0 1890 l0 -1890 6355 0 6355 0 0 1890 0 1890 -6355 0 -6355 0 0
-1890z m419 1606 c8 -9 11 -61 9 -162 l-3 -149 -99 -3 c-64 -2 -103 1 -112 9
-17 14 -20 269 -4 300 9 17 22 19 104 19 68 0 97 -4 105 -14z m639 2 c18 -18
17 -292 -2 -307 -9 -8 -48 -11 -112 -9 l-99 3 -3 149 c-2 101 1 153 9 162 15
18 189 20 207 2z m630 4 c9 -7 12 -46 10 -163 l-3 -154 -100 -3 c-85 -2 -102
0 -112 15 -9 11 -13 58 -13 149 0 166 -1 164 118 164 48 0 93 -4 100 -8z m640
-4 c17 -17 17 -289 0 -306 -8 -8 -46 -12 -103 -12 -57 0 -95 4 -103 12 -8 8
-12 57 -12 153 0 96 4 145 12 153 16 16 190 16 206 0z m636 -4 c21 -20 23
-270 3 -297 -10 -15 -27 -17 -112 -15 l-100 3 -3 154 c-2 117 1 156 10 163 7
4 52 8 100 8 66 0 90 -4 102 -16z m634 4 c13 -13 18 -271 6 -302 -5 -13 -24
-16 -103 -16 -62 0 -101 4 -109 12 -17 17 -17 289 0 306 16 16 190 16 206 0z
m642 -7 c16 -31 13 -286 -4 -300 -9 -8 -48 -11 -112 -9 l-99 3 -3 149 c-2 101
1 153 9 162 8 10 37 14 105 14 82 0 95 -2 104 -19z m629 5 c8 -9 11 -61 9
-162 l-3 -149 -99 -3 c-64 -2 -103 1 -112 9 -19 15 -20 289 -2 307 18 18 192
16 207 -2z m639 2 c18 -18 17 -292 -2 -307 -9 -8 -48 -11 -112 -9 l-99 3 -3
149 c-2 101 1 153 9 162 15 18 189 20 207 2z m631 -2 c8 -9 11 -61 9 -162 l-3
-149 -100 -3 c-85 -2 -102 0 -112 15 -16 21 -18 265 -3 294 9 17 22 19 104 19
68 0 97 -4 105 -14z m639 2 c8 -8 12 -57 12 -153 0 -96 -4 -145 -12 -153 -8
-8 -47 -12 -109 -12 -79 0 -98 3 -103 16 -12 31 -7 289 6 302 16 16 190 16
206 0z m630 4 c9 -7 12 -46 10 -163 l-3 -154 -100 -3 c-85 -2 -102 0 -112 15
-9 11 -13 58 -13 149 0 166 -1 164 118 164 48 0 93 -4 100 -8z m640 -4 c8 -8
12 -57 12 -153 0 -96 -4 -145 -12 -153 -8 -8 -46 -12 -103 -12 -57 0 -95 4
-103 12 -8 8 -12 57 -12 153 0 96 4 145 12 153 16 16 190 16 206 0z m636 -4
c21 -20 23 -270 3 -297 -10 -15 -27 -17 -112 -15 l-100 3 -3 154 c-2 117 1
156 10 163 7 4 52 8 100 8 66 0 90 -4 102 -16z m635 2 c8 -9 11 -61 9 -162
l-3 -149 -99 -3 c-64 -2 -103 1 -112 9 -19 15 -20 289 -2 307 18 18 192 16
207 -2z m641 -5 c16 -31 13 -286 -4 -300 -9 -8 -48 -11 -112 -9 l-99 3 -3 149
c-2 101 1 153 9 162 8 10 37 14 105 14 82 0 95 -2 104 -19z m629 5 c8 -9 11
-61 9 -162 l-3 -149 -99 -3 c-64 -2 -103 1 -112 9 -17 14 -20 269 -4 300 9 17
22 19 104 19 68 0 97 -4 105 -14z m639 2 c18 -18 17 -292 -2 -307 -9 -8 -48
-11 -112 -9 l-99 3 -3 149 c-2 101 1 153 9 162 15 18 189 20 207 2z m630 4 c9
-7 12 -46 10 -163 l-3 -154 -100 -3 c-85 -2 -102 0 -112 15 -9 11 -13 58 -13
149 0 166 -1 164 118 164 48 0 93 -4 100 -8z m640 -4 c17 -17 17 -289 0 -306
-8 -8 -46 -12 -103 -12 -57 0 -95 4 -103 12 -17 17 -17 289 0 306 16 16 190
16 206 0z m-9438 -1603 l0 -1125 -1500 0 -1500 0 0 1123 c0 618 2 1126 4 1128
2 2 677 3 1500 1 l1496 -2 0 -1125z m3180 -1 l0 -1124 -1502 2 -1503 3 -3
1122 -2 1123 1497 2 c824 2 1501 2 1506 0 4 -2 7 -509 7 -1128z m3175 4 l0
-1123 -1500 0 -1500 0 -3 1115 c-1 613 0 1120 2 1125 2 7 510 9 1502 8 l1499
-3 0 -1122z m3180 0 l0 -1123 -1500 0 -1500 0 -3 1115 c-1 613 0 1120 2 1125
2 7 510 9 1502 8 l1499 -3 0 -1122z m-12177 -1320 c8 -8 12 -58 12 -160 0
-174 4 -168 -116 -168 -113 0 -114 1 -114 171 0 171 -2 169 119 169 54 0 91
-4 99 -12z m636 -4 c13 -12 16 -41 16 -154 0 -171 1 -170 -111 -170 -123 0
-119 -6 -119 168 0 102 4 152 12 160 19 19 183 16 202 -4z m634 4 c8 -8 12
-58 12 -160 0 -173 3 -168 -112 -168 -116 0 -118 2 -118 167 0 173 0 173 120
173 53 0 91 -5 98 -12z m633 2 c17 -10 19 -23 19 -160 0 -176 4 -170 -115
-170 -119 0 -115 -6 -115 170 0 131 2 150 18 159 22 14 168 14 193 1z m643
-12 c13 -18 16 -51 16 -150 0 -162 -4 -168 -116 -168 -118 0 -114 -5 -114 168
0 102 4 152 12 160 8 8 45 12 99 12 79 0 89 -2 103 -22z m627 12 c17 -10 19
-23 19 -160 0 -176 4 -170 -119 -170 -112 0 -111 -2 -111 175 0 127 2 145 18
154 22 14 168 14 193 1z m643 -6 c13 -12 16 -41 16 -151 0 -172 -1 -173 -112
-173 -122 0 -118 -6 -118 168 0 102 4 152 12 160 19 19 183 16 202 -4z m634 4
c8 -8 12 -58 12 -160 0 -174 4 -168 -119 -168 -112 0 -111 -1 -111 170 0 173
-2 170 119 170 54 0 91 -4 99 -12z m636 -4 c13 -12 16 -41 16 -154 0 -171 1
-170 -111 -170 -123 0 -119 -6 -119 168 0 102 4 152 12 160 19 19 183 16 202
-4z m634 4 c8 -8 12 -58 12 -160 0 -174 4 -168 -116 -168 -113 0 -114 1 -114
171 0 171 -2 169 119 169 54 0 91 -4 99 -12z m633 2 c17 -10 19 -23 19 -155 0
-177 1 -175 -111 -175 -123 0 -119 -6 -119 170 0 131 2 150 18 159 22 14 168
14 193 1z m637 -2 c8 -8 12 -58 12 -160 0 -173 4 -168 -114 -168 -112 0 -116
6 -116 168 0 170 1 172 119 172 54 0 91 -4 99 -12z m633 2 c17 -10 19 -23 19
-160 0 -176 4 -170 -119 -170 -112 0 -111 -2 -111 175 0 127 2 145 18 154 22
14 168 14 193 1z m643 -6 c13 -12 16 -41 16 -154 0 -168 -1 -170 -118 -170
-115 0 -112 -5 -112 168 0 102 4 152 12 160 19 19 183 16 202 -4z m634 4 c8
-8 12 -58 12 -160 0 -174 4 -168 -119 -168 -112 0 -111 -1 -111 170 0 173 -2
170 119 170 54 0 91 -4 99 -12z m636 -4 c13 -12 16 -41 16 -151 0 -172 -1
-173 -112 -173 -122 0 -118 -6 -118 168 0 102 4 152 12 160 19 19 183 16 202
-4z m634 4 c8 -8 12 -58 12 -160 0 -174 4 -168 -116 -168 -113 0 -114 1 -114
171 0 171 -2 169 119 169 54 0 91 -4 99 -12z m636 -4 c13 -12 16 -41 16 -154
0 -171 1 -170 -111 -170 -123 0 -119 -6 -119 168 0 102 4 152 12 160 19 19
183 16 202 -4z m634 4 c8 -8 12 -58 12 -160 0 -173 4 -168 -114 -168 -112 0
-116 5 -116 172 0 168 0 168 120 168 53 0 91 -5 98 -12z m633 2 c17 -10 19
-23 19 -160 0 -176 4 -170 -115 -170 -119 0 -115 -6 -115 170 0 131 2 150 18
159 22 14 168 14 193 1z"/>
</g>
</svg>
