<?xml version="1.0" standalone="no"?>
<!DOCTYPE svg PUBLIC "-//W3C//DTD SVG 20010904//EN"
 "http://www.w3.org/TR/2001/REC-SVG-20010904/DTD/svg10.dtd">
<svg version="1.0" xmlns="http://www.w3.org/2000/svg"
 width="1184.000000pt" height="581.000000pt" viewBox="0 0 1184.000000 581.000000"
 preserveAspectRatio="xMidYMid meet">

<g transform="translate(0.000000,581.000000) scale(0.100000,-0.100000)"
fill="#000000" stroke="none">
<path d="M1365 5794 c-334 -56 -647 -266 -887 -594 -227 -311 -373 -697 -445
-1175 -14 -96 -18 -182 -18 -430 1 -330 7 -407 61 -675 176 -881 697 -1583
1324 -1784 141 -45 231 -60 375 -59 521 1 981 337 1270 928 399 813 373 1914
-66 2765 -292 565 -741 942 -1218 1024 -112 19 -285 19 -396 0z m34 -354 c35
-19 83 -57 111 -87 62 -68 133 -208 157 -310 22 -95 24 -301 4 -383 -21 -88
-85 -212 -138 -267 -66 -70 -120 -95 -214 -101 -67 -4 -83 -1 -138 23 -118 53
-240 215 -286 380 -26 94 -31 305 -10 401 41 186 140 321 272 370 65 24 168
13 242 -26z m1021 -451 c120 -64 209 -170 269 -320 49 -123 64 -221 59 -383
-6 -161 -30 -256 -93 -361 -80 -134 -181 -205 -301 -213 -177 -11 -316 92
-424 313 -64 133 -85 226 -84 385 1 152 20 247 73 355 60 125 147 211 251 249
71 26 174 16 250 -25z m-1728 -550 c82 -42 170 -156 214 -281 50 -142 61 -369
25 -511 -25 -97 -72 -186 -128 -244 -53 -54 -96 -73 -166 -73 -133 0 -246 115
-320 327 -27 78 -31 104 -35 229 -3 107 0 161 12 224 44 216 158 350 299 350
39 0 71 -7 99 -21z m781 -470 c44 -60 26 -189 -26 -189 -39 0 -61 34 -65 103
-3 52 -1 66 18 90 26 33 46 32 73 -4z m317 -191 c27 -44 28 -137 2 -168 -14
-17 -25 -21 -44 -17 -71 18 -69 217 2 217 12 0 28 -13 40 -32z m-542 -113 c27
-34 36 -93 22 -144 -12 -46 -27 -56 -64 -47 -47 12 -65 151 -26 194 27 29 44
28 68 -3z m312 -45 c72 -51 110 -217 76 -332 -20 -71 -62 -118 -106 -118 -90
0 -153 101 -154 250 -2 166 91 266 184 200z m1130 -176 c164 -76 277 -230 332
-452 30 -121 30 -333 0 -443 -45 -167 -148 -311 -260 -366 -48 -24 -69 -28
-137 -28 -128 1 -230 57 -321 178 -60 80 -108 177 -136 274 -20 67 -23 101
-23 243 0 185 17 269 78 385 45 85 148 186 217 213 81 31 179 29 250 -4z
m-812 -114 c42 -39 42 -132 1 -176 -28 -30 -40 -30 -69 1 -32 34 -40 130 -15
169 21 31 53 34 83 6z m-558 -102 c24 -39 26 -104 6 -153 -22 -52 -74 -43 -95
16 -40 115 34 227 89 137z m-392 -129 c262 -131 346 -641 151 -919 -60 -85
-105 -114 -191 -118 -96 -6 -143 14 -212 89 -67 72 -130 197 -151 297 -19 93
-19 256 0 347 18 88 73 199 121 249 46 48 126 86 180 86 26 0 63 -11 102 -31z
m696 -72 c41 -55 18 -187 -33 -187 -60 0 -88 148 -40 206 18 21 49 13 73 -19z
m265 -504 c117 -56 226 -211 272 -388 27 -104 30 -290 6 -385 -37 -142 -123
-273 -215 -327 -36 -22 -61 -28 -128 -31 -72 -4 -89 -1 -139 22 -66 30 -154
116 -203 198 -122 206 -136 506 -32 715 100 202 268 277 439 196z"/>
<path d="M2690 5546 c0 -2 44 -62 97 -132 404 -537 657 -1100 734 -1634 11
-80 36 -225 55 -322 18 -97 37 -209 40 -247 l7 -71 46 -26 c61 -36 147 -99
193 -142 21 -20 40 -34 42 -31 3 2 10 88 16 190 24 393 -27 797 -145 1155
-171 521 -478 915 -909 1173 -96 57 -176 97 -176 87z"/>
<path d="M7200 3951 c-55 -6 -98 -24 -285 -119 -267 -135 -532 -279 -805 -439
-251 -147 -547 -330 -569 -352 -32 -32 -240 -527 -342 -815 -64 -180 -123
-307 -203 -442 l-48 -81 -67 14 c-142 32 -265 111 -386 249 -36 41 -143 179
-239 307 -225 300 -359 460 -526 627 -199 200 -313 278 -296 203 3 -16 10 -54
15 -85 10 -63 22 -82 129 -211 83 -99 88 -85 -45 -128 -40 -12 -73 -29 -73
-36 0 -15 81 -111 95 -112 6 0 53 10 105 23 72 18 98 21 109 12 8 -6 45 -51
83 -100 l69 -89 -137 -59 c-76 -32 -140 -57 -144 -56 -4 2 -41 48 -83 104 -70
94 -80 103 -146 133 -39 18 -75 30 -81 26 -16 -10 -12 -50 16 -169 24 -100 32
-119 84 -191 87 -120 217 -322 314 -488 48 -81 114 -180 147 -220 176 -213
415 -348 614 -349 197 -1 333 78 478 281 51 71 53 73 135 101 181 63 397 196
541 335 233 223 348 447 601 1170 23 66 43 121 44 122 5 6 179 -57 258 -93
286 -129 554 -319 788 -560 162 -167 531 -560 576 -614 61 -73 458 -607 636
-856 190 -266 422 -610 563 -834 l96 -155 332 3 c363 3 421 7 413 28 -11 29
-208 342 -339 538 -155 233 -300 439 -420 594 -43 57 -77 106 -74 108 3 3 335
157 738 343 l734 338 43 -41 c24 -22 204 -223 400 -445 510 -579 784 -883 789
-877 3 2 1 218 -3 480 l-7 476 -131 128 c-250 244 -612 564 -921 817 -776 635
-1498 1086 -2059 1289 -227 83 -393 119 -696 151 -161 18 -714 28 -820 16z
m464 -191 c175 -17 492 -87 616 -136 9 -3 -209 -118 -543 -285 l-557 -279
-148 74 c-140 70 -310 137 -434 172 -32 8 -58 18 -58 22 1 12 679 396 723 410
96 29 240 37 401 22z m1245 -474 c296 -197 533 -366 781 -559 205 -159 480
-389 475 -397 -2 -3 -313 -147 -691 -320 l-687 -314 -41 45 c-475 519 -731
754 -1116 1030 -85 61 -156 114 -158 118 -3 8 1127 580 1147 581 8 0 139 -83
290 -184z m390 27 l102 -66 -45 -29 -45 -30 -107 73 -106 72 43 23 c24 13 47
23 50 24 4 0 52 -30 108 -67z m-3224 -220 c-4 -10 -35 -97 -70 -193 -105 -294
-73 -254 -294 -365 -105 -52 -193 -95 -195 -95 -5 0 122 277 177 386 22 44 53
87 79 109 40 34 282 175 302 175 4 0 5 -8 1 -17z m3709 -99 c70 -41 126 -77
126 -80 0 -6 -118 -64 -130 -64 -5 0 -62 34 -125 77 l-115 76 47 33 c27 18 53
33 60 33 7 1 68 -33 137 -75z m-2438 -176 c46 -34 81 -65 78 -69 -2 -4 -27
-15 -54 -24 l-49 -16 -81 62 c-44 34 -78 65 -75 67 7 7 78 40 89 41 5 1 46
-27 92 -61z m2995 -234 c63 -48 117 -90 122 -93 4 -4 -28 -22 -72 -40 l-80
-33 -115 92 c-64 50 -116 93 -116 96 0 5 122 62 136 63 7 1 63 -38 125 -85z
m-2663 -45 c40 -34 72 -64 72 -68 0 -7 -122 -51 -142 -51 -14 0 -145 127 -137
133 8 6 114 46 125 46 5 1 42 -26 82 -60z m-1944 -276 c-64 -117 -121 -197
-177 -250 -53 -50 -284 -209 -292 -201 -2 2 27 73 65 158 l68 155 184 102
c100 57 185 103 186 103 2 0 -13 -30 -34 -67z m2333 -87 l92 -85 -64 -29
c-107 -51 -98 -52 -173 29 -106 114 -104 104 -30 139 35 17 68 30 73 30 6 0
51 -38 102 -84z m-3933 -99 c47 -59 86 -111 86 -115 -1 -4 -58 -49 -127 -101
l-127 -94 -25 31 c-39 45 -174 272 -167 279 15 15 262 121 267 115 4 -4 45
-56 93 -115z m6793 36 c47 -43 101 -92 121 -109 l35 -31 -77 -46 c-42 -26 -81
-47 -86 -47 -9 0 -223 224 -227 238 -2 5 130 71 146 72 2 0 42 -35 88 -77z
m-2468 -379 c51 -58 92 -107 90 -109 -2 -1 -34 -19 -70 -39 l-66 -36 -90 102
c-49 57 -92 109 -97 116 -5 8 12 21 56 42 35 17 68 30 73 30 6 0 52 -48 104
-106z m-4014 -5 c59 -60 128 -108 176 -122 l42 -12 -123 -99 -122 -98 -42 12
c-115 33 -237 115 -236 156 1 8 249 202 260 203 3 1 24 -17 45 -40z m7131
-242 l126 -122 -97 -44 -98 -43 -116 122 c-64 68 -117 126 -119 130 -3 7 144
78 165 79 7 1 69 -54 139 -122z m-2652 -333 c54 -69 96 -127 95 -129 -2 -2
-45 -21 -96 -43 -84 -37 -93 -39 -106 -23 -8 9 -51 67 -96 129 l-82 112 83 40
c45 22 87 40 92 40 6 0 55 -57 110 -126z m469 -636 c59 -75 107 -140 107 -145
0 -5 -46 -24 -102 -42 -57 -19 -108 -36 -114 -38 -10 -4 -221 283 -217 296 1
3 46 25 100 47 73 31 101 39 109 30 6 -6 59 -73 117 -148z"/>
<path d="M3306 1957 c-22 -39 -65 -112 -96 -162 -31 -49 -81 -135 -110 -190
-63 -118 -144 -247 -209 -330 -69 -89 -69 -89 11 -50 179 90 378 257 513 430
110 142 108 115 18 254 -43 67 -80 121 -83 121 -3 0 -23 -33 -44 -73z"/>
</g>
</svg>
